<?xml version="1.0" encoding="UTF-8"?>
<svg id="Layer_2" data-name="Layer 2" xmlns="http://www.w3.org/2000/svg" viewBox="0 0 378.95 82.74">
  <defs>
    <style>
      .cls-1 {
        fill: #212121;
        stroke-width: 0px;
      }
    </style>
  </defs>
  <g id="Layer_1-2" data-name="Layer 1">
    <g>
      <path class="cls-1" d="M302.16,54.45c-1.06,0-1.93.86-1.93,1.93s.86,1.93,1.93,1.93,1.93-.86,1.93-1.93-.86-1.93-1.93-1.93Z"/>
      <path class="cls-1" d="M24.05,13.09c-6,0-11.49,2.7-15.71,6.35V0H0v58.29h8.34v-3.25c4.22,3.65,9.71,6.16,15.71,6.16,13.27,0,24.05-10.78,24.05-24.05s-10.79-24.05-24.05-24.05ZM23.66,52.86c-8.66,0-15.81-6.59-15.81-15.71,0-10.36,9.19-17.42,19.35-15.35,5.07,1.04,9.22,4.79,10.85,9.71,3.65,11.01-3.9,21.35-14.39,21.35Z"/>
      <path class="cls-1" d="M159.92,19.44c-4.22-3.65-9.71-6.35-15.71-6.35-13.27,0-24.05,10.78-24.05,24.05s10.79,24.05,24.05,24.05c6,0,11.49-2.5,15.71-6.16v3.25h8.34V0h-8.34v19.44ZM144.6,52.86c-10.48,0-18.04-10.33-14.39-21.34,1.63-4.92,5.77-8.68,10.84-9.72,10.17-2.09,19.36,5,19.36,15.35,0,9.12-7.15,15.71-15.81,15.71Z"/>
      <polygon class="cls-1" points="239.85 7.86 231.51 7.86 231.51 15.74 226.84 15.74 226.84 23.89 231.51 23.89 231.51 58.29 239.85 58.29 239.85 23.89 244.5 23.89 244.5 15.74 239.85 15.74 239.85 7.86"/>
      <rect class="cls-1" x="53.44" y="15.75" width="8.34" height="42.54"/>
      <path class="cls-1" d="M213.16,19.44c-4.22-3.65-9.71-6.35-15.71-6.35-13.26,0-24.05,10.78-24.05,24.05s10.78,24.05,24.05,24.05c6,0,11.49-2.5,15.71-6.16v3.25h8.34V15.75h-8.34v3.68ZM197.84,52.86c-10.48,0-18.04-10.33-14.39-21.34,1.63-4.92,5.77-8.68,10.84-9.72,10.17-2.09,19.36,5,19.36,15.35,0,9.13-7.15,15.71-15.81,15.71Z"/>
      <path class="cls-1" d="M285.91,19.44c-4.22-3.65-9.71-6.35-15.71-6.35-13.26,0-24.05,10.78-24.05,24.05s10.78,24.05,24.05,24.05c6,0,11.49-2.5,15.71-6.16v3.25h8.34V15.75h-8.34v3.68ZM270.59,52.86c-10.48,0-18.04-10.33-14.39-21.34,1.63-4.92,5.77-8.68,10.84-9.72,10.17-2.09,19.36,5,19.36,15.35,0,9.13-7.15,15.71-15.81,15.71Z"/>
      <path class="cls-1" d="M106.68,19.44c-4.22-3.65-9.71-6.35-15.71-6.35-13.26,0-24.05,10.78-24.05,24.05s10.78,24.05,24.05,24.05c6,0,11.49-2.5,15.71-6.16v2.26c0,12.58-8.81,16.87-17.07,16.87-2.41,0-4.74-.49-6.93-1.47l-3.41,7.85c3.28,1.46,6.76,2.2,10.35,2.2,14.7,0,25.41-10.22,25.41-25.45V15.75h-8.34v3.68ZM91.36,52.86c-10.48,0-18.04-10.33-14.39-21.34,1.63-4.92,5.77-8.68,10.84-9.72,10.17-2.09,19.36,5,19.36,15.35,0,9.12-7.15,15.71-15.81,15.71Z"/>
      <path class="cls-1" d="M317.94,40.9c1.86,0,3.56.79,4.77,2.04l2.74-2.69c-2.3-2.3-5.67-3.55-9.29-2.94-4.28.72-7.75,4.12-8.55,8.39-1.25,6.7,3.89,12.57,10.37,12.57,2.91,0,5.55-1.18,7.46-3.09l-2.74-2.69c-1.52,1.56-3.77,2.4-6.17,1.89-2.33-.49-4.27-2.25-4.98-4.52-1.45-4.57,1.98-8.96,6.38-8.96Z"/>
      <path class="cls-1" d="M336.48,37.16c-5.5.17-10.08,4.75-10.23,10.25-.17,5.95,4.63,10.86,10.55,10.86s10.56-4.74,10.56-10.56-4.92-10.73-10.88-10.56ZM335.06,54.3c-2.17-.56-3.93-2.23-4.63-4.36-1.53-4.6,1.93-9.05,6.36-9.05,3.71,0,6.72,3.11,6.72,6.81,0,4.27-3.98,7.74-8.45,6.59Z"/>
      <path class="cls-1" d="M370.75,37.17c-2.51,0-4.76,1.14-6.26,2.93-1.5-1.79-3.75-2.93-6.26-2.93-1.62,0-3.25.73-4.33,1.92v-1.06h-3.86v20.23h3.86v-12.87c0-2.87,1.94-4.37,4.33-4.37s4.34,1.64,4.34,4.37h0v12.87h3.86v-12.87h0c0-2.41,1.93-4.37,4.32-4.37,2.87,0,4.33,1.57,4.33,4.37v12.87h3.86v-12.87c0-5.21-3.67-8.23-8.19-8.23Z"/>
    </g>
  </g>
</svg>