<?xml version="1.0" encoding="UTF-8"?>
<svg id="Layer_2" xmlns="http://www.w3.org/2000/svg" viewBox="0 0 375.43 81.97">
  <defs>
    <style>
      .cls-1 {
        fill: #fffde9;
      }
    </style>
  </defs>
  <g id="Layer_1-2" data-name="Layer_1">
    <g id="Layer_1-2">
      <g>
        <path class="cls-1" d="M299.36,53.95c-1.05,0-1.91.85-1.91,1.91s.85,1.91,1.91,1.91,1.91-.85,1.91-1.91-.85-1.91-1.91-1.91Z"/>
        <path class="cls-1" d="M23.83,12.97c-5.94,0-11.38,2.67-15.56,6.29V0H0v57.75h8.26v-3.22c4.18,3.62,9.62,6.1,15.56,6.1,13.15,0,23.83-10.68,23.83-23.83s-10.69-23.83-23.83-23.83h0ZM23.44,52.37c-8.58,0-15.66-6.53-15.66-15.56,0-10.26,9.1-17.26,19.17-15.21,5.02,1.03,9.13,4.75,10.75,9.62,3.62,10.91-3.86,21.15-14.26,21.15Z"/>
        <path class="cls-1" d="M158.44,19.26c-4.18-3.62-9.62-6.29-15.56-6.29-13.15,0-23.83,10.68-23.83,23.83s10.69,23.83,23.83,23.83c5.94,0,11.38-2.48,15.56-6.1v3.22h8.26V0h-8.26v19.26ZM143.26,52.37c-10.38,0-17.87-10.23-14.26-21.14,1.61-4.87,5.72-8.6,10.74-9.63,10.08-2.07,19.18,4.95,19.18,15.21,0,9.04-7.08,15.56-15.66,15.56Z"/>
        <polygon class="cls-1" points="237.63 7.79 229.37 7.79 229.37 15.59 224.74 15.59 224.74 23.67 229.37 23.67 229.37 57.75 237.63 57.75 237.63 23.67 242.23 23.67 242.23 15.59 237.63 15.59 237.63 7.79"/>
        <rect class="cls-1" x="52.94" y="15.6" width="8.26" height="42.15"/>
        <path class="cls-1" d="M211.19,19.26c-4.18-3.62-9.62-6.29-15.56-6.29-13.14,0-23.83,10.68-23.83,23.83s10.68,23.83,23.83,23.83c5.94,0,11.38-2.48,15.56-6.1v3.22h8.26V15.6h-8.26v3.65h0ZM196.01,52.37c-10.38,0-17.87-10.23-14.26-21.14,1.61-4.87,5.72-8.6,10.74-9.63,10.08-2.07,19.18,4.95,19.18,15.21,0,9.05-7.08,15.56-15.66,15.56Z"/>
        <path class="cls-1" d="M283.26,19.26c-4.18-3.62-9.62-6.29-15.56-6.29-13.14,0-23.83,10.68-23.83,23.83s10.68,23.83,23.83,23.83c5.94,0,11.38-2.48,15.56-6.1v3.22h8.26V15.6h-8.26v3.65h0ZM268.08,52.37c-10.38,0-17.87-10.23-14.26-21.14,1.61-4.87,5.72-8.6,10.74-9.63,10.08-2.07,19.18,4.95,19.18,15.21,0,9.05-7.08,15.56-15.66,15.56h0Z"/>
        <path class="cls-1" d="M105.69,19.26c-4.18-3.62-9.62-6.29-15.56-6.29-13.14,0-23.83,10.68-23.83,23.83s10.68,23.83,23.83,23.83c5.94,0,11.38-2.48,15.56-6.1v2.24c0,12.46-8.73,16.71-16.91,16.71-2.39,0-4.7-.49-6.87-1.46l-3.38,7.78c3.25,1.45,6.7,2.18,10.25,2.18,14.56,0,25.17-10.13,25.17-25.21V15.6h-8.26v3.65h0ZM90.51,52.37c-10.38,0-17.87-10.23-14.26-21.14,1.61-4.87,5.72-8.6,10.74-9.63,10.08-2.07,19.18,4.95,19.18,15.21,0,9.04-7.08,15.56-15.66,15.56Z"/>
        <path class="cls-1" d="M314.99,40.52c1.84,0,3.53.78,4.73,2.02l2.71-2.67c-2.28-2.28-5.62-3.52-9.2-2.91-4.24.71-7.68,4.08-8.47,8.31-1.24,6.64,3.85,12.45,10.27,12.45,2.88,0,5.5-1.17,7.39-3.06l-2.71-2.67c-1.51,1.55-3.74,2.38-6.11,1.87-2.31-.49-4.23-2.23-4.93-4.48-1.44-4.53,1.96-8.88,6.32-8.88h0Z"/>
        <path class="cls-1" d="M333.36,36.82c-5.45.17-9.99,4.71-10.14,10.16-.17,5.89,4.59,10.76,10.45,10.76s10.46-4.7,10.46-10.46-4.87-10.63-10.78-10.46h0ZM331.96,53.8c-2.15-.55-3.89-2.21-4.59-4.32-1.52-4.56,1.91-8.97,6.3-8.97,3.68,0,6.66,3.08,6.66,6.75,0,4.23-3.94,7.67-8.37,6.53h0Z"/>
        <path class="cls-1" d="M367.31,36.83c-2.49,0-4.72,1.13-6.2,2.9-1.49-1.77-3.72-2.9-6.2-2.9-1.6,0-3.22.72-4.29,1.9v-1.05h-3.82v20.04h3.82v-12.75c0-2.84,1.92-4.33,4.29-4.33s4.3,1.62,4.3,4.33h0v12.75h3.82v-12.75h0c0-2.39,1.91-4.33,4.28-4.33,2.84,0,4.29,1.56,4.29,4.33v12.75h3.82v-12.75c0-5.16-3.64-8.15-8.11-8.15h0Z"/>
      </g>
    </g>
  </g>
</svg>